<svg xmlns="http://www.w3.org/2000/svg" width="142" height="142" viewBox="0 0 142 142" fill="none">
  <rect width="142" height="142" fill="#0C0F14"/>
  <path d="M69.8883 35.1753C69.8883 37.1903 69.2348 39.5864 67.3288 44.2697C65.9673 47.8095 64.6059 51.7304 64.3881 53.0919C63.5167 57.7752 65.4227 62.8942 69.5071 66.924L72.0121 69.3746L71.1408 66.9785C69.7249 62.8942 70.0516 57.5574 72.2299 50.968C73.2646 47.755 74.1359 44.1064 74.1359 42.7994C74.1359 39.8587 72.8834 36.1011 71.1408 34.0317L69.8338 32.398L69.8883 35.1753Z" fill="#D17842"/>
  <path d="M59.2149 49.6612C56.2198 53.5277 55.294 58.7556 56.9277 61.9686C57.799 63.6023 61.3388 66.9787 63.2448 68.0133C64.3339 68.6124 64.3339 68.449 62.8636 66.2707C61.9923 65.0182 60.7942 62.8399 60.2496 61.4784C59.0516 58.3744 58.9971 52.6563 60.1407 49.879C61.2299 47.374 60.9576 47.3195 59.2149 49.6612Z" fill="#D17842"/>
  <path d="M113.913 64.1371C113.431 64.3387 111.422 64.7822 109.494 65.1047C107.566 65.4273 105.196 65.9514 104.192 66.2336C102.665 66.7174 102.384 66.9593 102.143 68.0881C101.982 68.8138 101.982 69.3782 102.103 69.3782C102.183 69.3782 103.509 68.9347 104.995 68.4106C106.481 67.8462 108.851 67.2012 110.257 66.9593C111.663 66.7174 113.23 66.3948 113.752 66.2739C114.275 66.1529 114.636 66.2336 114.636 66.5158C114.636 66.798 113.552 68.8138 112.266 71.0312C110.981 73.2485 109.334 76.4738 108.61 78.2477C106.401 83.6904 103.75 85.1014 99.8129 82.8841C98.889 82.3196 98.0052 81.8762 97.9249 81.8762C97.5634 81.8762 96.5591 84.3757 96.8001 84.7386C97.2822 85.5449 99.7326 86.3109 101.661 86.3109C105.517 86.2706 108.892 83.6501 109.816 79.941C110.378 77.7236 111.222 76.0303 114.516 70.5071C115.922 68.0881 117.127 65.6691 117.167 65.0644C117.247 64.0968 117.087 63.9356 116.042 63.8549C115.399 63.8146 114.435 63.9356 113.913 64.1371Z" fill="white"/>
  <path d="M24.8519 65.8894C26.7579 82.2811 37.7583 95.1875 53.4421 99.3807C58.2343 100.688 67.7099 100.688 72.5022 99.3807C88.1315 95.133 99.1319 82.2811 101.038 66.1072L101.31 63.3843L100.003 66.1072C96.6269 73.0233 90.9633 76.7264 83.1759 77.1621C77.4034 77.4888 74.5171 76.672 64.2791 71.8253C51.3182 65.6716 43.0952 63.4388 30.7878 62.7309L24.4707 62.4041L24.8519 65.8894Z" fill="white"/>
  <path d="M27.3571 100.361C27.7928 100.742 37.5407 103.356 41.7339 104.173C56.3829 107.005 75.3341 106.569 89.1119 103.084C94.7755 101.613 98.2063 100.579 97.934 100.361C97.8251 100.252 93.5774 100.633 88.5128 101.178C70.433 103.247 51.6451 103.138 34.7089 100.906C28.5552 100.143 26.9759 99.9797 27.3571 100.361Z" fill="white"/>
  <path d="M43.5309 107.223C47.0161 108.693 55.7293 109.946 62.9722 109.946C70.2695 109.946 80.0718 108.53 82.2501 107.168C82.9036 106.787 82.7947 106.733 81.76 106.95C73.1557 108.693 56.1105 108.693 44.1844 106.95C42.5506 106.678 42.4417 106.733 43.5309 107.223Z" fill="white"/>
</svg>